HIERARCHY
ROOT Hips
{
	OFFSET 0.000000 0.000000 0.000000
	CHANNELS 6 Xposition Yposition Zposition Zrotation Yrotation Xrotation 
	JOINT LHipJoint
	{
		OFFSET 0.000000 0.000000 0.000000
		CHANNELS 3 Zrotation Yrotation Xrotation
		JOINT LeftUpLeg
		{
			OFFSET 1.363060 -1.794630 0.839290
			CHANNELS 3 Zrotation Yrotation Xrotation
			JOINT LeftLeg
			{
				OFFSET 2.448110 -6.726130 0.000000
				CHANNELS 3 Zrotation Yrotation Xrotation
				JOINT LeftFoot
				{
					OFFSET 2.562200 -7.039590 0.000000
					CHANNELS 3 Zrotation Yrotation Xrotation
					JOINT LeftToeBase
					{
						OFFSET 0.157640 -0.433110 2.322550
						CHANNELS 3 Zrotation Yrotation Xrotation
						End Site
						{
							OFFSET 0.000000 0.000000 0.000000
						}
					}
				}
			}
		}
	}
	JOINT RHipJoint
	{
		OFFSET 0.000000 0.000000 0.000000
		CHANNELS 3 Zrotation Yrotation Xrotation
		JOINT RightUpLeg
		{
			OFFSET -1.305520 -1.794630 0.839290
			CHANNELS 3 Zrotation Yrotation Xrotation
			JOINT RightLeg
			{
				OFFSET -2.542530 -6.985550 0.000000
				CHANNELS 3 Zrotation Yrotation Xrotation
				JOINT RightFoot
				{
					OFFSET -2.568260 -7.056230 0.000000
					CHANNELS 3 Zrotation Yrotation Xrotation
					JOINT RightToeBase
					{
						OFFSET -0.164730 -0.452590 2.363150
						CHANNELS 3 Zrotation Yrotation Xrotation
						End Site
						{
							OFFSET 0.000000 0.000000 0.000000
						}
					}
				}
			}
		}
	}
	JOINT LowerBack
	{
		OFFSET 0.000000 0.000000 0.000000
		CHANNELS 3 Zrotation Yrotation Xrotation
		JOINT Spine
		{
			OFFSET 0.028270 2.035590 -0.193380
			CHANNELS 3 Zrotation Yrotation Xrotation
			JOINT Spine1
			{
				OFFSET 0.056720 2.048850 -0.042750
				CHANNELS 3 Zrotation Yrotation Xrotation
				JOINT Neck
				{
					OFFSET 0.000000 0.000000 0.000000
					CHANNELS 3 Zrotation Yrotation Xrotation
					JOINT Neck1
					{
						OFFSET -0.054170 1.746240 0.172020
						CHANNELS 3 Zrotation Yrotation Xrotation
						JOINT Head
						{
							OFFSET 0.104070 1.761360 -0.123970
							CHANNELS 3 Zrotation Yrotation Xrotation
							End Site
							{
								OFFSET 0.000000 0.000000 0.000000
							}
						}
					}
				}
				JOINT LeftShoulder
				{
					OFFSET 0.000000 0.000000 0.000000
					CHANNELS 3 Zrotation Yrotation Xrotation
					JOINT LeftArm
					{
						OFFSET 3.362410 1.200890 -0.311210
						CHANNELS 3 Zrotation Yrotation Xrotation
						JOINT LeftForeArm
						{
							OFFSET 4.983000 -0.000000 -0.000000
							CHANNELS 3 Zrotation Yrotation Xrotation
							JOINT LeftHand
							{
								OFFSET 3.483560 -0.000000 -0.000000
								CHANNELS 3 Zrotation Yrotation Xrotation
								JOINT LeftFingerBase
								{
									OFFSET 0.000000 0.000000 0.000000
									CHANNELS 3 Zrotation Yrotation Xrotation
									JOINT LeftHandIndex1
									{
										OFFSET 0.715260 -0.000000 -0.000000
										CHANNELS 3 Zrotation Yrotation Xrotation
										End Site
										{
											OFFSET 0.000000 0.000000 0.000000
										}
									}
								}
								JOINT LThumb
								{
									OFFSET 0.000000 0.000000 0.000000
									CHANNELS 3 Zrotation Yrotation Xrotation
									End Site
									{
										OFFSET 0.000000 0.000000 0.000000
									}
								}
							}
						}
					}
				}
				JOINT RightShoulder
				{
					OFFSET 0.000000 0.000000 0.000000
					CHANNELS 3 Zrotation Yrotation Xrotation
					JOINT RightArm
					{
						OFFSET -3.136600 1.374050 -0.404650
						CHANNELS 3 Zrotation Yrotation Xrotation
						JOINT RightForeArm
						{
							OFFSET -5.241900 -0.000000 -0.000000
							CHANNELS 3 Zrotation Yrotation Xrotation
							JOINT RightHand
							{
								OFFSET -3.444170 -0.000000 -0.000000
								CHANNELS 3 Zrotation Yrotation Xrotation
								JOINT RightFingerBase
								{
									OFFSET 0.000000 0.000000 0.000000
									CHANNELS 3 Zrotation Yrotation Xrotation
									JOINT RightHandIndex1
									{
										OFFSET -0.622530 -0.000000 -0.000000
										CHANNELS 3 Zrotation Yrotation Xrotation
										End Site
										{
											OFFSET 0.000000 0.000000 0.000000
										}
									}
								}
								JOINT RThumb
								{
									OFFSET 0.000000 0.000000 0.000000
									CHANNELS 3 Zrotation Yrotation Xrotation
									End Site
									{
										OFFSET 0.000000 0.000000 0.000000
									}
								}
							}
						}
					}
				}
			}
		}
	}
}
MOTION
Frames: 4
Frame Time: 0.008333
-0.567661 17.178291 -1.229607 2.092629 9.975738 18.687481 -2.307122 -1.373853 -0.419639 -18.515544 1.796645 -5.599708 -0.355224 6.585024 17.757576 2.504906 -15.287449 -11.480278 0.624020 -5.054951 -14.065440 -0.740962 2.060392 -4.013318 20.070593 -0.628298 -48.823166 0.751292 -6.642935 15.188978 -1.051753 10.859748 -4.367277 -1.350386 7.308480 -20.655076 -2.754019 -2.650587 -6.175062 1.484562 -3.429851 -10.178913 0.813286 -1.506547 -0.210034 -1.631061 -1.568691 -8.309779 4.888839 -2.443773 11.929403 0.431464 -0.906655 3.910252 13.020409 7.275744 -0.668716 -93.649349 -10.857306 43.512646 22.677843 -40.740546 -7.724484 -0.027064 -0.640294 -5.571862 22.918229 -19.303864 -7.715340 -7.125000 0.000000 0.000000 -3.339468 9.922061 2.718374 -13.521933 -6.589869 1.670830 104.874144 -20.055930 -50.452004 -3.298084 10.552190 0.048408 -2.115207 0.014995 49.079190 -19.224807 -35.550409 10.243690 7.125000 0.000000 0.000000 19.128856 -64.534721 -9.206534
-0.565290 17.166293 -1.107345 2.135459 10.045529 18.713525 -2.296122 -1.347033 -0.397600 -18.476845 1.582496 -5.117761 -0.357037 6.577533 17.761938 2.466984 -15.099807 -11.312220 0.651407 -5.160834 -14.368300 -0.743783 2.049588 -4.011382 19.940286 -0.474088 -48.700709 0.745980 -6.649554 15.199723 -1.060738 11.053699 -4.384653 -1.055767 6.504192 -18.264521 -2.692573 -2.670182 -6.154902 1.501953 -3.463240 -10.202475 0.811800 -1.522483 -0.266870 -1.652147 -1.587609 -8.367484 4.839158 -2.458212 11.899566 0.415882 -0.917572 3.913406 13.018690 7.271627 -0.670399 -93.704931 -10.972672 43.449767 22.888721 -40.949646 -7.843901 -0.017046 -0.636890 -5.771048 23.096649 -19.295312 -7.775271 -7.125000 0.000000 0.000000 -3.227804 9.903108 2.629086 -13.520943 -6.587518 1.655375 104.775343 -19.998060 -52.262438 -3.313942 10.393798 0.060419 -2.102733 0.077153 50.713073 -19.108070 -35.642699 10.202888 7.125000 0.000000 0.000000 19.354350 -64.599034 -9.347279
-0.565912 17.157863 -0.983610 2.141519 10.059482 18.725773 -2.284580 -1.319014 -0.377369 -18.401347 1.398724 -4.668497 -0.352323 6.590369 17.819939 2.433737 -14.864213 -11.201915 0.691845 -5.316156 -14.812800 -0.743439 2.030702 -4.000998 19.460599 0.149265 -48.268861 0.747267 -6.667952 15.240962 -1.029363 10.667435 -4.132523 -0.840346 5.825353 -16.284968 -2.626383 -2.668797 -6.138047 1.518639 -3.470947 -10.224668 0.812127 -1.523981 -0.329628 -1.627719 -1.612749 -8.374467 4.753329 -2.480878 11.836204 0.375603 -0.933619 3.886943 13.017532 7.268936 -0.669852 -93.753905 -11.045192 43.346097 23.104505 -41.164886 -7.971340 -0.006215 -0.628836 -5.924797 23.216935 -19.116018 -7.747852 -7.125000 0.000000 0.000000 -3.141774 10.068580 2.548210 -13.519557 -6.582966 1.641348 104.681965 -19.944732 -54.203365 -3.324901 10.213890 0.073420 -2.085401 0.147175 52.492233 -18.982105 -35.673921 10.141514 7.125000 0.000000 0.000000 19.535816 -64.607324 -9.441864
-0.566879 17.146981 -0.856351 2.068773 10.052043 18.708372 -2.271753 -1.291849 -0.358076 -18.248972 1.216353 -4.225986 -0.335085 6.635550 17.968719 2.411935 -14.606163 -11.195460 0.797089 -5.681513 -15.867648 -0.737585 2.005519 -3.986000 18.946083 0.965156 -47.715936 0.749122 -6.711444 15.345072 -0.994566 10.051174 -4.066130 -0.609307 4.901432 -13.645734 -2.476014 -2.641901 -6.169720 1.535951 -3.456004 -10.242399 0.782010 -1.515336 -0.368759 -1.618819 -1.618557 -8.340261 4.686954 -2.479815 11.852640 0.348818 -0.935346 3.885489 13.012012 7.265211 -0.668581 -93.773278 -10.978152 43.191394 23.362029 -41.416244 -8.122048 0.000133 -0.620867 -5.916764 23.318928 -18.968531 -7.726730 -7.125000 0.000000 0.000000 -3.068409 10.202782 2.480179 -13.511640 -6.576763 1.633248 104.601274 -20.002744 -55.232392 -3.341318 10.133212 0.081855 -2.080282 0.177858 53.359216 -18.917983 -35.812912 10.140267 7.125000 0.000000 0.000000 19.747293 -64.721800 -9.600932
